<svg width="1024" height="512" viewBox="100 150 1024 768" fill="none" xmlns="http://www.w3.org/2000/svg">
<path d="M40.9665 497.104C39.6742 497.104 38.382 496.674 37.0897 495.812C35.7975 494.951 35.1513 493.766 35.1513 492.258C35.1513 488.597 37.1974 486.228 41.2896 485.151C48.6124 483.428 53.6737 481.274 56.4736 478.69C59.2735 476.105 60.6735 471.475 60.6735 464.798V318.126C60.6735 311.234 59.2735 306.388 56.4736 303.589C53.8891 300.789 48.8278 298.42 41.2896 296.481C37.1974 295.404 35.1513 293.035 35.1513 289.374C35.1513 287.866 35.7975 286.682 37.0897 285.82C38.382 284.958 39.6742 284.528 40.9665 284.528C45.7048 284.528 50.8738 284.635 56.4736 284.851C62.0734 285.066 67.5655 285.389 72.9499 285.82C78.3343 286.035 83.1803 286.143 87.4878 286.143C99.3335 286.143 111.072 286.143 122.702 286.143C134.332 286.143 146.07 286.143 157.916 286.143C169.331 286.143 180.638 286.143 191.838 286.143C203.253 286.143 214.56 286.143 225.76 286.143C230.067 286.143 234.913 286.035 240.297 285.82C245.682 285.389 251.174 285.066 256.774 284.851C262.374 284.635 267.543 284.528 272.281 284.528C273.573 284.528 274.865 284.958 276.158 285.82C277.45 286.682 278.096 287.866 278.096 289.374C278.096 293.035 276.05 295.404 271.958 296.481C264.42 298.42 259.251 300.789 256.451 303.589C253.866 306.388 252.574 311.234 252.574 318.126V464.798C252.574 471.475 253.974 476.105 256.774 478.69C259.574 481.274 264.635 483.428 271.958 485.151C276.05 486.228 278.096 488.597 278.096 492.258C278.096 493.766 277.45 494.951 276.158 495.812C274.865 496.674 273.573 497.104 272.281 497.104C268.189 497.104 263.343 496.889 257.743 496.458C252.143 496.243 246.436 496.027 240.621 495.812C235.021 495.597 230.067 495.489 225.76 495.489C221.667 495.489 216.498 495.597 210.252 495.812C204.222 496.027 198.084 496.243 191.838 496.458C185.592 496.674 180.207 496.781 175.685 496.781C174.177 496.781 172.885 496.351 171.808 495.489C170.946 494.628 170.515 493.443 170.515 491.935C170.515 489.782 171.054 488.274 172.131 487.412C173.208 486.551 174.715 485.797 176.654 485.151C185.053 482.782 190.545 480.305 193.13 477.72C195.93 474.921 197.438 470.505 197.653 464.475C198.514 439.276 199.161 413.646 199.591 387.585C200.022 361.309 199.376 335.572 197.653 310.373C197.653 308.65 197.33 307.358 196.684 306.496C196.038 305.635 194.853 305.096 193.13 304.881C189.253 304.45 185.376 304.127 181.5 303.912C177.623 303.481 173.638 303.266 169.546 303.266C165.67 303.05 161.793 302.942 157.916 302.942C151.885 302.942 145.747 303.158 139.501 303.589C133.255 304.019 127.009 304.45 120.764 304.881C117.748 305.096 116.025 306.927 115.594 310.373C113.01 335.357 111.933 360.986 112.364 387.262C113.01 413.538 114.087 439.276 115.594 464.475C116.025 470.505 117.533 474.921 120.117 477.72C122.702 480.305 128.194 482.782 136.594 485.151C138.532 485.797 140.04 486.551 141.117 487.412C142.193 488.274 142.732 489.782 142.732 491.935C142.732 493.443 142.301 494.628 141.44 495.489C140.578 496.351 139.286 496.781 137.563 496.781C133.04 496.781 127.656 496.674 121.41 496.458C115.164 496.243 109.025 496.027 102.995 495.812C96.9644 495.597 91.7954 495.489 87.4878 495.489C83.1803 495.489 78.119 495.597 72.3038 495.812C66.704 496.027 61.1042 496.243 55.5044 496.458C49.9046 496.889 45.0587 497.104 40.9665 497.104Z" fill="white"/>
<path d="M335.352 500.981C326.521 500.981 319.091 500.227 313.06 498.72C307.245 497.212 302.83 495.597 299.815 493.874C298.953 493.443 298.092 492.689 297.23 491.612C296.369 490.535 295.938 489.458 295.938 488.382C295.938 487.089 296.476 485.905 297.553 484.828C298.63 483.536 299.922 482.89 301.43 482.89C309.614 482.89 316.614 480.843 322.429 476.751C328.244 472.659 333.306 467.382 337.613 460.921C342.136 454.244 346.444 447.245 350.536 439.922C356.136 430.015 362.381 420.861 369.273 412.461C376.166 404.062 384.565 397.924 394.473 394.047C395.334 393.616 395.872 393.078 396.088 392.431C396.519 391.785 395.549 391.247 393.18 390.816C383.488 388.447 375.196 385.001 368.304 380.478C361.412 375.74 356.136 369.925 352.474 363.033C349.028 355.925 347.305 347.741 347.305 338.48C347.305 326.634 350.32 316.727 356.351 308.758C362.597 300.573 371.643 294.435 383.488 290.343C395.549 286.035 410.195 283.882 427.425 283.882C435.609 283.882 442.071 284.097 446.809 284.528C451.763 284.743 456.178 285.066 460.055 285.497C463.932 285.928 468.454 286.143 473.623 286.143C477.931 286.143 482.885 286.035 488.484 285.82C494.3 285.389 500.115 285.066 505.93 284.851C511.96 284.635 517.345 284.528 522.083 284.528C523.375 284.528 524.668 284.958 525.96 285.82C527.252 286.682 527.898 287.866 527.898 289.374C527.898 293.035 525.852 295.404 521.76 296.481C513.145 298.42 507.438 300.789 504.638 303.589C501.838 306.388 500.438 311.234 500.438 318.126V464.798C500.438 471.475 501.622 476.105 503.992 478.69C506.361 481.274 511.637 483.428 519.822 485.151C525.206 486.228 527.898 488.597 527.898 492.258C527.898 493.766 526.821 495.058 524.668 496.135C522.729 497.427 520.791 498.074 518.852 498.074C511.53 498.074 505.284 497.751 500.115 497.104C494.946 496.674 490.315 496.243 486.223 495.812C482.131 495.166 477.931 494.843 473.623 494.843C469.531 494.843 465.224 495.058 460.701 495.489C456.178 495.92 451.224 496.351 445.84 496.781C440.455 497.212 434.317 497.427 427.425 497.427C425.271 497.427 423.225 496.889 421.287 495.812C419.349 494.735 418.379 493.443 418.379 491.935C418.379 489.782 419.241 488.274 420.964 487.412C422.687 486.551 424.518 485.797 426.456 485.151C432.056 483.428 436.04 481.813 438.409 480.305C440.994 478.582 442.609 476.536 443.255 474.167C444.117 471.582 444.655 468.352 444.871 464.475L445.84 399.539C445.84 397.816 445.409 396.631 444.548 395.985C443.901 395.339 442.825 395.016 441.317 395.016C440.455 395.016 439.379 395.339 438.086 395.985C436.794 396.631 435.609 397.493 434.533 398.57C428.287 404.816 422.364 413.215 416.764 423.769C411.38 434.322 405.564 445.199 399.319 456.398C395.011 464.367 389.734 471.798 383.488 478.69C377.458 485.366 370.458 490.751 362.489 494.843C354.52 498.935 345.474 500.981 335.352 500.981ZM434.21 384.355C437.871 384.355 440.671 383.386 442.609 381.447C444.548 379.509 445.517 376.386 445.517 372.078V313.927C445.517 308.973 444.332 305.312 441.963 302.942C439.809 300.358 435.825 299.066 430.01 299.066C423.764 299.066 418.379 300.573 413.856 303.589C409.334 306.604 405.888 311.342 403.518 317.803C401.365 324.265 400.288 332.772 400.288 343.326C400.288 355.602 403.088 365.509 408.687 373.048C414.287 380.586 422.795 384.355 434.21 384.355Z" fill="white"/>
<path d="M614.692 497.104C613.399 497.104 611.892 496.674 610.169 495.812C608.661 494.951 607.907 493.766 607.907 492.258C607.907 490.32 608.553 488.812 609.846 487.736C611.353 486.443 613.076 485.582 615.015 485.151C623.199 483.428 629.014 481.274 632.46 478.69C636.122 476.105 637.952 471.475 637.952 464.798V329.757C637.952 321.573 637.737 315.65 637.306 311.988C636.875 308.111 636.337 305.635 635.691 304.558C635.045 303.266 634.183 302.404 633.106 301.973C631.599 300.896 629.23 300.25 625.999 300.035C622.984 299.819 620.938 299.712 619.861 299.712H614.369C607.261 299.712 600.477 301.543 594.016 305.204C587.554 308.865 582.385 313.281 578.508 318.45C577.432 319.957 575.816 322.111 573.662 324.911C571.509 327.711 569.247 330.188 566.878 332.341C564.509 334.495 562.14 335.572 559.771 335.572C557.832 335.572 556.432 335.034 555.571 333.957C554.925 332.664 554.602 331.264 554.602 329.757C554.602 326.957 555.355 324.049 556.863 321.034C561.171 312.634 564.294 305.419 566.232 299.389C568.386 293.358 569.786 286.358 570.432 278.39C570.863 275.374 571.832 273.22 573.339 271.928C574.847 270.636 576.678 269.99 578.831 269.99C580.555 269.99 582.278 271.39 584.001 274.19C585.724 276.99 587.662 279.251 589.816 280.974C592.185 282.697 595.954 283.989 601.123 284.851C606.292 285.712 610.276 286.143 613.076 286.143L736.487 285.82C741.441 285.82 745.641 285.282 749.087 284.205C752.748 283.128 755.333 282.159 756.84 281.297C760.502 279.143 763.409 276.774 765.563 274.19C767.717 271.605 770.194 270.313 772.993 270.313C774.501 270.313 775.47 270.744 775.901 271.605C776.547 272.467 776.87 273.759 776.87 275.482C776.87 276.343 776.763 277.313 776.547 278.39C776.547 279.466 776.439 280.543 776.224 281.62C775.147 285.928 773.963 290.235 772.67 294.543C771.594 298.635 770.624 302.619 769.763 306.496C769.117 310.373 768.794 314.25 768.794 318.126V324.911C768.794 328.788 768.363 331.803 767.501 333.957C766.855 335.895 765.455 336.864 763.301 336.864C761.148 336.864 759.317 335.895 757.809 333.957C756.517 332.018 755.117 328.788 753.61 324.265C750.81 315.65 747.041 309.404 742.302 305.527C737.564 301.65 730.564 299.712 721.303 299.712H708.057C704.611 299.712 701.704 300.573 699.335 302.296C697.181 304.019 695.566 307.358 694.489 312.311C693.412 317.05 692.873 324.157 692.873 333.634V464.475C692.873 470.505 694.489 474.921 697.719 477.72C701.165 480.305 707.088 482.782 715.488 485.151C717.426 485.797 719.042 486.551 720.334 487.412C721.841 488.274 722.595 489.782 722.595 491.935C722.595 493.443 721.949 494.628 720.657 495.489C719.58 496.351 718.18 496.781 716.457 496.781C711.934 496.781 706.442 496.674 699.981 496.458C693.519 496.243 687.058 496.027 680.597 495.812C674.351 495.597 669.074 495.489 664.767 495.489C660.459 495.489 655.29 495.597 649.26 495.812C643.229 496.027 637.091 496.243 630.845 496.458C624.814 496.889 619.43 497.104 614.692 497.104Z" fill="white"/>
<path d="M804.063 497.751C802.125 497.751 800.617 497.212 799.54 496.135C798.463 495.058 797.925 493.874 797.925 492.581C797.925 489.351 800.079 487.089 804.386 485.797C811.494 483.643 816.447 481.382 819.247 479.013C822.262 476.644 823.77 472.121 823.77 465.444V318.126C823.77 311.234 822.37 306.388 819.57 303.589C816.77 300.789 811.063 298.42 802.448 296.481C798.356 295.404 796.31 293.035 796.31 289.374C796.31 287.866 796.956 286.682 798.248 285.82C799.54 284.958 800.833 284.528 802.125 284.528C806.863 284.528 812.14 284.635 817.955 284.851C823.985 285.066 829.801 285.389 835.4 285.82C841.216 286.035 846.277 286.143 850.584 286.143C854.892 286.143 860.061 286.035 866.092 285.82C872.122 285.605 878.26 285.389 884.506 285.174C890.752 284.958 896.137 284.851 900.66 284.851C902.383 284.851 903.675 285.282 904.536 286.143C905.398 286.789 905.829 287.974 905.829 289.697C905.829 291.851 905.29 293.358 904.213 294.22C903.136 295.081 901.629 295.835 899.69 296.481C890.86 299.066 885.045 301.758 882.245 304.558C879.66 307.358 878.368 311.988 878.368 318.45V364.648C878.368 372.186 882.029 375.955 889.352 375.955C889.783 375.955 890.214 375.955 890.645 375.955C891.291 375.955 892.044 375.847 892.906 375.632C895.706 375.201 899.367 374.771 903.89 374.34C908.628 373.694 913.797 373.371 919.397 373.371C939.643 373.371 955.688 378.54 967.534 388.878C979.595 399 985.626 413.323 985.626 431.845C985.626 444.122 983.687 453.921 979.81 461.244C975.934 468.352 971.411 473.736 966.242 477.397C961.073 481.059 956.442 484.074 952.35 486.443C945.673 490.32 938.135 493.12 929.735 494.843C921.551 496.566 911.967 497.427 900.983 497.427C899.69 497.427 897.537 497.32 894.521 497.104C891.721 496.889 886.983 496.674 880.306 496.458C873.63 496.243 863.722 496.135 850.584 496.135C846.277 496.135 841.323 496.243 835.723 496.458C830.124 496.674 824.524 496.889 818.924 497.104C813.324 497.535 808.371 497.751 804.063 497.751ZM894.521 483.859C899.906 483.859 905.075 481.49 910.028 476.751C914.982 471.798 918.967 465.444 921.982 457.69C925.212 449.937 926.828 441.753 926.828 433.138C926.828 425.384 925.966 419.03 924.243 414.077C922.52 409.123 920.366 405.139 917.782 402.123C915.413 399.108 913.259 396.847 911.321 395.339C909.598 394.047 906.905 392.647 903.244 391.139C899.583 389.416 895.167 388.555 889.998 388.555C889.137 388.555 888.275 388.555 887.414 388.555C886.768 388.555 886.014 388.77 885.152 389.201C883.214 389.632 881.599 390.601 880.306 392.108C879.229 393.616 878.691 395.877 878.691 398.893V464.152C878.691 467.167 878.906 469.967 879.337 472.551C879.983 474.921 881.06 476.967 882.568 478.69C884.076 480.197 885.799 481.49 887.737 482.566C889.675 483.428 891.937 483.859 894.521 483.859Z" fill="white"/>
<path d="M28.8451 548.056H259.606V778.817H28.8451V548.056Z" fill="#D9302E"/>
<path d="M113.804 721.127C109.604 721.127 106.373 719.996 104.112 717.735C101.85 715.473 100.72 712.242 100.72 708.043V620.331C100.72 616.131 101.85 612.9 104.112 610.639C106.373 608.377 109.604 607.246 113.804 607.246H174.055C177.286 607.246 179.763 608.108 181.486 609.831C183.209 611.446 184.07 613.815 184.07 616.938C184.07 620.169 183.209 622.646 181.486 624.369C179.763 625.984 177.286 626.792 174.055 626.792H124.626V653.122H154.671C166.948 653.122 176.586 656.029 183.586 661.844C190.585 667.659 194.085 676.059 194.085 687.043C194.085 698.028 190.585 706.481 183.586 712.404C176.586 718.219 166.948 721.127 154.671 721.127H113.804ZM124.626 701.743H151.279C157.74 701.743 162.479 700.558 165.494 698.189C168.509 695.712 170.017 691.997 170.017 687.043C170.017 682.09 168.509 678.428 165.494 676.059C162.479 673.69 157.74 672.505 151.279 672.505H124.626V701.743Z" fill="white"/>
<path d="M274.028 548.056H504.789V778.817H274.028V548.056Z" fill="#E5A40B"/>
<path d="M379.967 722.581C377.059 722.581 374.583 721.827 372.537 720.319C370.49 718.811 369.252 716.819 368.821 714.342C368.391 711.758 368.983 708.85 370.598 705.62L382.39 682.521V689.789L340.876 622.269C339.153 619.469 338.453 616.831 338.776 614.354C339.207 611.769 340.445 609.723 342.491 608.216C344.538 606.6 347.176 605.793 350.407 605.793C353.637 605.793 356.114 606.6 357.837 608.216C359.56 609.831 361.283 612.092 363.006 615L394.505 667.498H390.144L416.635 615.161C417.927 612.792 419.435 610.639 421.158 608.7C422.988 606.762 425.681 605.793 429.234 605.793C432.25 605.793 434.726 606.546 436.665 608.054C438.711 609.454 440.003 611.446 440.542 614.031C441.08 616.508 440.434 619.415 438.603 622.753L392.728 713.212C391.543 715.581 390.036 717.735 388.205 719.673C386.374 721.611 383.628 722.581 379.967 722.581Z" fill="white"/>
<path d="M519.211 548.056H749.972V778.817H519.211V548.056Z" fill="#178B38"/>
<path d="M602.502 722.581C598.41 722.581 595.287 721.45 593.133 719.188C590.979 716.927 589.903 713.75 589.903 709.658V618.554C589.903 614.462 590.979 611.339 593.133 609.185C595.287 606.923 598.41 605.793 602.502 605.793C606.487 605.793 609.556 606.923 611.709 609.185C613.863 611.339 614.94 614.462 614.94 618.554V654.252H631.093L626.893 656.998L654.516 612.254C656.239 609.562 658.285 607.731 660.654 606.762C663.131 605.793 665.5 605.577 667.761 606.116C670.13 606.654 672.123 607.785 673.738 609.508C675.461 611.231 676.43 613.331 676.646 615.808C676.969 618.284 676.215 620.977 674.384 623.884L649.67 662.006L639.655 655.06C646.977 656.352 653.062 658.991 657.908 662.975C662.861 666.96 667.169 672.667 670.83 680.098L682.784 704.65C684.507 707.989 685.045 710.95 684.399 713.535C683.861 716.119 682.568 718.165 680.522 719.673C678.476 721.181 676.161 722.042 673.576 722.257C671.1 722.581 668.623 722.15 666.146 720.965C663.777 719.673 661.946 717.519 660.654 714.504L648.7 688.82C646.331 683.759 643.477 680.205 640.139 678.159C636.909 676.005 632.763 674.928 627.701 674.928H614.94V709.658C614.94 713.75 613.863 716.927 611.709 719.188C609.663 721.45 606.594 722.581 602.502 722.581Z" fill="white"/>
<path d="M764.394 548.056H995.155V778.817H764.394V548.056Z" fill="#0B64A2"/>
<path d="M848.17 721.127C843.97 721.127 840.739 719.996 838.478 717.735C836.216 715.473 835.086 712.242 835.086 708.043V620.331C835.086 616.131 836.216 612.9 838.478 610.639C840.739 608.377 843.97 607.246 848.17 607.246H887.261C895.337 607.246 902.229 608.431 907.937 610.8C913.644 613.169 917.952 616.561 920.859 620.977C923.875 625.392 925.382 630.669 925.382 636.807C925.382 643.591 923.444 649.352 919.567 654.091C915.69 658.829 910.36 662.006 903.575 663.621V661.037C911.437 662.437 917.521 665.56 921.829 670.406C926.244 675.144 928.451 681.336 928.451 688.982C928.451 699.104 924.952 707.02 917.952 712.727C910.952 718.327 901.314 721.127 889.037 721.127H848.17ZM858.992 702.55H885.645C892.107 702.55 896.845 701.312 899.86 698.835C902.875 696.251 904.383 692.482 904.383 687.528C904.383 682.574 902.875 678.859 899.86 676.382C896.845 673.905 892.107 672.667 885.645 672.667H858.992V702.55ZM858.992 654.091H882.899C889.145 654.091 893.776 652.906 896.791 650.537C899.806 648.168 901.314 644.614 901.314 639.876C901.314 635.245 899.806 631.745 896.791 629.376C893.776 627.007 889.145 625.823 882.899 625.823H858.992V654.091Z" fill="white"/>
</svg>